{"title":"Arrow S02E11 HDTV 480p x264 AAC E-Subs [GWC].mp4","uid":9513147,"size":140707932,"categoryP":"video","categoryS":"tv_shows","magnet":"?xt=urn:btih:bd2d32bc2fd71c5a21de16d59820375f7136a60b&amp;dn=Arrow+S02E11+HDTV+480p+x264+AAC+E-Subs+%5BGWC%5D.mp4&amp;tr=udp%3A%2F%2Ftracker.openbittorrent.com%3A80&amp;tr=udp%3A%2F%2Fopen.demonii.com%3A1337&amp;tr=udp%3A%2F%2Ftracker.coppersurfer.tk%3A6969&amp;tr=udp%3A%2F%2Fexodus.desync.com%3A6969","seeders":1,"leechers":1,"uploader":"canc232","files":1,"time":1390455416,"description":"Arrow S02E11 HDTV 480p x264 AAC E-Subs [GWC]\n\n\n\nSCREENS : &lt;a href=&quot;\nhttp://imageshack.com/a/img401/6889/y0gb.jpg&quot; rel=&quot;nofollow&quot; target=&quot;_NEW&quot;&gt;\nhttp://imageshack.com/a/img401/6889/y0gb.jpg&lt;/a&gt; &lt;a href=&quot;\nhttp://imageshack.com/a/img43/5541/jqgg.jpg&quot; rel=&quot;nofollow&quot; target=&quot;_NEW&quot;&gt;\nhttp://imageshack.com/a/img43/5541/jqgg.jpg&lt;/a&gt; &lt;a href=&quot;\nhttp://imageshack.com/a/img202/5408/vcpa.jpg&quot; rel=&quot;nofollow&quot; target=&quot;_NEW&quot;&gt;\nhttp://imageshack.com/a/img202/5408/vcpa.jpg&lt;/a&gt;\n\n\n\nMEDIA INFO :\nGeneral \nFormat : MPEG-4 \nFormat profile : Base Media \nFile size : 134 MiB \nDuration : 42mn 14s \nOverall bit rate mode : Variable \nOverall bit rate : 444 Kbps \n\nVideo \nFormat : AVC \nFormat profile : &lt;a class=&quot;__cf_email__&quot; href=&quot;/cdn-cgi/l/email-protection&quot; data-cfemail=&quot;470f2e202f070b746977&quot;&gt;[email&amp;#160;protected]&lt;/a&gt;&lt;script cf-hash='f9e31' type=&quot;text/javascript&quot;&gt;\n/* &lt;![CDATA[ */!function(){try{var t=&quot;currentScript&quot;in document?document.currentScript:function(){for(var t=document.getElementsByTagName(&quot;script&quot;),e=t.length;e--;)if(t[e].getAttribute(&quot;cf-hash&quot;))return t[e]}();if(t&amp;&amp;t.previousSibling){var e,r,n,i,c=t.previousSibling,a=c.getAttribute(&quot;data-cfemail&quot;);if(a){for(e=&quot;&quot;,r=parseInt(a.substr(0,2),16),n=2;a.length-n;n+=2)i=parseInt(a.substr(n,2),16)^r,e+=String.fromCharCode(i);e=document.createTextNode(e),c.parentNode.replaceChild(e,c)}}}catch(u){}}();/* ]]&gt; */&lt;/script&gt; \nFormat settings, CABAC : Yes \nFormat settings, ReFrames : 4 frames \nDuration : 42mn 5s \nBit rate : 382 Kbps \nMaximum bit rate : 3 144 Kbps \nWidth : 720 pixels \nHeight : 404 pixels \nDisplay aspect ratio : 16:9 \nFrame rate : 23.976 fps \nStream size : 115 MiB (86%) \nTitle : Arrow S02E11 HDTV 480p x264 AAC E-Subs [GWC] \nWriting library : x264 core \n\nAudio \nFormat : AAC \nFormat profile : HE-AAC / LC \nDuration : 42mn 5s \nBit rate mode : Variable \nChannel(s) : 2 channels \nSampling rate : 48.0 KHz / 24.0 KHz \nCompression mode : Lossy \nStream size : 18.1 MiB \nLanguage : English \n\nText  \nFormat : Timed Text \nDuration : 42mn 14s \nStream size : 25.4 KiB (0%) \nTitle : English Subtitle by elderman \nLanguage : English","torrent":{"xt":"urn:btih:bd2d32bc2fd71c5a21de16d59820375f7136a60b","amp;dn":"Arrow+S02E11+HDTV+480p+x264+AAC+E-Subs+%5BGWC%5D.mp4","amp;tr":["udp%3A%2F%2Ftracker.openbittorrent.com%3A80","udp%3A%2F%2Fopen.demonii.com%3A1337","udp%3A%2F%2Ftracker.coppersurfer.tk%3A6969","udp%3A%2F%2Fexodus.desync.com%3A6969"],"infoHash":"bd2d32bc2fd71c5a21de16d59820375f7136a60b","infoHashBuffer":{"type":"Buffer","data":[189,45,50,188,47,215,28,90,33,222,22,213,152,32,55,95,113,54,166,11]},"announce":[],"urlList":[]}}